<svg width="140" height="28" viewBox="0 0 140 28" fill="none" xmlns="http://www.w3.org/2000/svg">
<g id="LOGO">
<g id="Layer 1">
<g id="Group">
<path id="Vector" d="M13.7719 21.8981V14.4131H20.034V27.8023H10.7483C3.58277 27.8023 0 23.1917 0 13.9707C0 4.74966 3.58277 0.145176 10.7483 0.15725H20.034V6.12092H13.5338C8.76537 6.12092 6.38117 8.27698 6.38117 12.5891V15.5593C6.38117 19.7834 8.67304 21.8964 13.2568 21.8981H13.7719Z" fill="white"/>
<path id="Vector_2" d="M30.7173 23.6762L29.1356 27.7822H22.7959L32.5735 1.69728C32.809 1.18992 33.1832 0.759409 33.6529 0.455389C34.121 0.155656 34.6658 -0.00247592 35.2217 2.9312e-05C35.787 2.77533e-05 36.3411 0.157732 36.8215 0.455389C37.3026 0.748366 37.6821 1.18185 37.9088 1.69728L47.8261 27.8029H41.4657L39.8658 23.6762H30.7173ZM37.536 17.6918L35.245 11.829L32.9928 17.6918H37.536Z" fill="white"/>
<path id="Vector_3" d="M65.7535 6.89074C65.7629 6.63208 65.6699 6.38014 65.4947 6.18959C65.4147 6.09826 65.3159 6.0253 65.2051 5.97573C65.0943 5.92616 64.9741 5.90114 64.8527 5.9024C64.7934 5.90364 64.7345 5.91057 64.6766 5.9231V5.9024H56.8121V27.8218H50.5992L50.5889 0.156071H64.6947C66.7502 0.130198 68.4268 0.733895 69.7246 1.96716C71.0224 3.20043 71.6575 4.90544 71.6299 7.0822C71.604 9.25896 70.9913 11.0114 69.7919 12.3395L67.3637 15.2037C67.1569 15.4778 67.0307 15.8041 66.9992 16.1459C66.9676 16.4878 67.032 16.8316 67.1851 17.1389L73.1521 27.8218L65.5645 27.7804L60.9618 18.8155C59.8659 16.5732 59.8659 14.7966 60.9618 13.4857L63.8845 9.69276C65.1305 8.08865 65.7535 7.15464 65.7535 6.89074Z" fill="white"/>
<path id="Vector_4" d="M98.1119 0.197266L88.1946 26.3029C87.9672 26.8185 87.5879 27.2527 87.1073 27.5473C86.6265 27.844 86.0725 28.0008 85.5075 28.0001C84.9474 28.0063 84.3977 27.849 83.9258 27.5473C83.4607 27.2405 83.0912 26.8093 82.8592 26.3029L73.0791 0.217964H79.4214L85.5256 16.1737L91.7385 0.197266H98.1119Z" fill="white"/>
<path id="Vector_5" d="M118.247 27.8022H105.542C102.052 27.8022 100.308 25.9265 100.308 22.1749V5.15325C100.308 1.82429 102.052 0.158951 105.542 0.157227H118.247V6.10796H106.709V11.0574H116.288V16.9409H106.709V21.8386H118.247V27.8022Z" fill="white"/>
<path id="Vector_6" d="M140 27.8022H127.295C123.805 27.8022 122.061 25.9265 122.061 22.1749V5.15325C122.061 1.82429 123.805 0.158951 127.295 0.157227H140V6.10796H128.46V11.0574H138.038V16.9409H128.46V21.8386H140V27.8022Z" fill="white"/>
</g>
</g>
</g>
</svg>
